<?xml version="1.0" encoding="UTF-8" standalone="no"?>
<!-- Generator: Adobe Illustrator 16.0.0, SVG Export Plug-In . SVG Version: 6.00 Build 0)  -->

<svg
   xmlns:dc="http://purl.org/dc/elements/1.1/"
   xmlns:cc="http://creativecommons.org/ns#"
   xmlns:rdf="http://www.w3.org/1999/02/22-rdf-syntax-ns#"
   xmlns:svg="http://www.w3.org/2000/svg"
   xmlns="http://www.w3.org/2000/svg"
   xmlns:sodipodi="http://sodipodi.sourceforge.net/DTD/sodipodi-0.dtd"
   xmlns:inkscape="http://www.inkscape.org/namespaces/inkscape"
   version="1.1"
   id="图层_1"
   x="0px"
   y="0px"
   width="413.86px"
   height="82.2px"
   viewBox="0 0 413.86 82.2"
   enable-background="new 0 0 413.86 82.2"
   xml:space="preserve"
   sodipodi:docname="eken.svg"
   inkscape:version="0.92.4 5da689c313, 2019-01-14"><metadata
   id="metadata20"><rdf:RDF><cc:Work
       rdf:about=""><dc:format>image/svg+xml</dc:format><dc:type
         rdf:resource="http://purl.org/dc/dcmitype/StillImage" /></cc:Work></rdf:RDF></metadata><defs
   id="defs18" /><sodipodi:namedview
   pagecolor="#ffffff"
   bordercolor="#666666"
   borderopacity="1"
   objecttolerance="10"
   gridtolerance="10"
   guidetolerance="10"
   inkscape:pageopacity="0"
   inkscape:pageshadow="2"
   inkscape:window-width="1920"
   inkscape:window-height="1050"
   id="namedview16"
   showgrid="false"
   inkscape:zoom="3.587987"
   inkscape:cx="180.5972"
   inkscape:cy="95.345491"
   inkscape:window-x="0"
   inkscape:window-y="30"
   inkscape:window-maximized="0"
   inkscape:current-layer="图层_1" />
<g
   id="XMLID_167_"
   transform="translate(-60)"
   style="fill:#2b78b3;fill-opacity:1">
	<path
   id="XMLID_171_"
   d="m 394.59,16.8 c -0.145,-0.154 -0.427,-0.286 -0.709,-0.439 0.709,-0.141 1.271,-0.287 1.707,-0.705 0.418,-0.419 0.692,-0.992 0.692,-1.559 0,-0.428 -0.132,-0.854 -0.418,-1.14 -0.274,-0.424 -0.567,-0.708 -0.991,-0.845 -0.426,-0.146 -1.138,-0.285 -2.125,-0.285 h -2.689 v 8.085 h 1.275 v -3.397 h 0.706 c 0.565,0 0.852,0.132 1.133,0.286 0.287,0.272 0.71,0.846 1.274,1.836 l 0.707,1.275 h 1.7 l -0.99,-1.56 c -0.567,-0.706 -0.853,-1.28 -1.272,-1.552 z m -1.569,-1.262 h -1.631 v -2.526 h 1.494 c 0.741,0 1.179,0 1.48,0.156 0.147,0.143 0.447,0.29 0.598,0.44 0,0.146 0.145,0.455 0.145,0.745 0,0.296 -0.145,0.597 -0.444,0.894 -0.298,0.148 -0.886,0.291 -1.642,0.291 z"
   inkscape:connector-curvature="0"
   style="fill:#2b78b3;fill-opacity:1" />
	<path
   id="XMLID_168_"
   d="m 400.313,12.128 c -0.75,-1.338 -1.781,-2.24 -2.974,-2.986 -1.34,-0.587 -2.526,-1.039 -3.867,-1.039 -1.332,0 -2.535,0.451 -3.866,1.039 -1.191,0.747 -2.231,1.648 -2.973,2.986 -0.598,1.183 -1.039,2.521 -1.039,3.857 0,1.339 0.441,2.688 1.039,3.876 0.741,1.338 1.638,2.225 2.973,2.971 1.189,0.593 2.534,1.039 3.866,1.039 1.341,0 2.677,-0.446 3.867,-1.039 1.328,-0.746 2.224,-1.633 2.974,-2.971 0.586,-1.189 1.041,-2.537 1.041,-3.876 0,-1.336 -0.456,-2.674 -1.041,-3.857 z m -1.188,7.131 c -0.594,1.042 -1.342,1.788 -2.384,2.38 -1.038,0.594 -2.078,0.899 -3.27,0.899 -1.186,0 -2.234,-0.306 -3.273,-0.899 -1.04,-0.592 -1.784,-1.338 -2.377,-2.38 -0.592,-1.042 -0.892,-2.084 -0.892,-3.274 0,-1.186 0.3,-2.231 0.892,-3.264 0.593,-1.05 1.337,-1.799 2.377,-2.381 1.039,-0.599 2.23,-0.893 3.273,-0.893 1.041,0 2.231,0.293 3.27,0.893 1.042,0.582 1.79,1.331 2.384,2.381 0.593,1.033 0.892,2.078 0.892,3.264 0,1.19 -0.299,2.232 -0.892,3.274 z"
   inkscape:connector-curvature="0"
   style="fill:#2b78b3;fill-opacity:1" />
</g>

<path
   id="XMLID_152_"
   d="m 147.101,17.871 -40.486,0.051 c -0.232,-0.018 -0.463,-0.025 -0.704,-0.025 -5.17,0 -9.363,3.755 -9.363,8.385 0,0.094 0.013,0.183 0.013,0.277 l -0.055,0.049 v 32.144 l 0.067,0.064 c -0.029,0.281 -0.046,0.563 -0.046,0.846 0,4.715 4.269,8.545 9.535,8.545 0.176,0 0.345,-0.023 0.517,-0.029 v 0.002 l 1.511,-0.029 h 38.977 v -8.33 l -31.91,-0.006 -0.012,-0.021 c -0.273,0.1 -0.746,0.023 -1.056,0.023 -1.324,0 -2.395,-0.959 -2.395,-2.145 0,-0.188 -0.086,-0.455 -0.035,-0.627 V 46.373 l 31.862,-0.035 V 38.07 l -31.862,-0.095 v -9.048 l 0.048,-0.036 c -0.009,-0.069 -0.026,-0.138 -0.026,-0.212 0,-1.374 1.244,-2.488 2.782,-2.488 0.215,0 0.42,0.026 0.624,0.07 l 0.05,-0.041 31.962,0.052 v -8.401 z"
   inkscape:connector-curvature="0"
   style="fill:#2b78b3;fill-opacity:1" />
<path
   id="XMLID_151_"
   d="m 261.217,17.829 -40.49,0.052 c -0.233,-0.016 -0.464,-0.023 -0.698,-0.023 -5.172,0 -9.366,3.752 -9.366,8.382 0,0.093 0.012,0.183 0.017,0.275 l -0.057,0.049 v 32.148 l 0.066,0.063 c -0.029,0.277 -0.046,0.559 -0.046,0.846 0,4.717 4.27,8.541 9.537,8.541 0.171,0 0.345,-0.018 0.513,-0.029 h 0.005 l 1.503,-0.025 h 38.983 v -8.326 l -31.909,-0.008 -0.01,-0.021 c -0.276,0.098 -0.751,0.025 -1.064,0.025 -1.32,0 -2.393,-0.961 -2.393,-2.145 0,-0.188 -0.083,-0.457 -0.031,-0.631 V 46.336 l 31.862,-0.043 v -8.265 l -31.862,-0.095 v -9.047 l 0.046,-0.036 c -0.008,-0.069 -0.026,-0.138 -0.026,-0.21 0,-1.377 1.249,-2.491 2.78,-2.491 0.218,0 0.425,0.027 0.628,0.069 l 0.05,-0.039 31.963,0.054 v -8.404 z"
   inkscape:connector-curvature="0"
   style="fill:#2b78b3;fill-opacity:1" />
<g
   id="XMLID_149_"
   transform="translate(-60)"
   style="fill:#2b78b3;fill-opacity:1">
	<path
   id="XMLID_150_"
   d="m 378.422,17.862 -11.089,0.036 v 33.479 h -0.03 c -0.068,0.287 -0.341,0.504 -0.681,0.504 -0.384,0 -0.691,-0.268 -0.704,-0.607 l -17.177,-30.24 c -0.905,-1.855 -2.809,-3.136 -5.016,-3.136 -0.042,0 -0.086,0.006 -0.127,0.007 l -0.013,-0.007 h -3.41 -1.364 -4.689 l -0.035,0.04 c -0.208,-0.021 -0.419,-0.04 -0.635,-0.04 -3.079,0 -5.58,2.491 -5.58,5.563 0,0.278 0,44.521 0,44.521 l 10.939,0.139 V 34.923 c -0.004,-0.024 -0.014,-0.048 -0.014,-0.071 0,-0.024 0.01,-0.046 0.014,-0.07 v -0.139 h 0.032 c 0.1,-0.244 0.356,-0.421 0.664,-0.421 0.307,0 0.563,0.177 0.661,0.421 h 0.007 l 17.204,30.289 c 0.894,1.889 2.817,3.199 5.054,3.199 0.074,0 0.143,-0.006 0.217,-0.012 h 0.333 2.993 1.356 l 5.465,0.008 c 0.015,0 0.033,0.004 0.054,0.004 0.016,0 0.038,-0.004 0.051,-0.004 h 0.156 l 0.006,-0.008 c 2.987,-0.113 5.37,-2.549 5.37,-5.549 10e-4,-0.091 -0.012,-44.708 -0.012,-44.708 z"
   inkscape:connector-curvature="0"
   style="fill:#2b78b3;fill-opacity:1" />
</g>
<g
   id="XMLID_145_"
   transform="translate(-60)"
   style="fill:#2b78b3;fill-opacity:1">
	<polyline
   id="XMLID_148_"
   points="242.528,42.063 263.688,20.768 262.633,17.914 247.689,17.914 227.158,39.434    227.155,17.922 213.457,17.922 213.457,68.188 227.155,68.188 227.158,43.063 247.689,68.188 261.88,68.125 263.062,65.289    242.528,42.063  "
   style="fill:#2b78b3;fill-opacity:1" />
	<ellipse
   id="XMLID_147_"
   cx="262.633"
   cy="19.513"
   rx="1.6670001"
   ry="1.6"
   style="fill:#2b78b3;fill-opacity:1" />
	<path
   id="XMLID_146_"
   d="m 263.618,66.512 c 0,0.865 -0.712,1.566 -1.604,1.596 -0.021,0 -0.038,0.006 -0.063,0.006 -0.919,0 -1.663,-0.721 -1.663,-1.602 0,-0.883 0.744,-1.598 1.663,-1.598 0.477,0 0.901,0.189 1.208,0.49 0.287,0.289 0.459,0.68 0.459,1.108 z"
   inkscape:connector-curvature="0"
   style="fill:#2b78b3;fill-opacity:1" />
</g>
</svg>